<svg width="178" height="40" viewBox="0 0 178 40" fill="none" xmlns="http://www.w3.org/2000/svg">
<g clip-path="url(#clip0)">
<path fill-rule="evenodd" clip-rule="evenodd" d="M0.0459801 39.0165L0.0121936 38.5475L0.0485205 38.0785L0.498414 37.9212L0.875909 37.6022L0.980063 37.1213L0.863715 36.645L0.510608 36.2972L0.0363268 36.1665L0.0315002 35.695L0.0193066 35.2163L0.510354 35.0925L0.883022 34.7567L1.00877 34.271L0.883022 33.7853L0.515181 33.4425L0.0289599 33.321L0.0579197 32.8447L0.0144799 32.3638L0.524834 32.2615L0.873114 31.8972L0.967361 31.4163L0.877941 30.9352L0.502987 30.6112L0.0238792 30.4685L0.0431858 29.99L0.0261655 29.5138L0.512386 29.3875L0.875401 29.0445L0.986668 28.5637L0.877687 28.0802L0.508068 27.7493L0.0508068 27.6065L0.0604601 27.1373L0.0337865 26.6635L0.49816 26.5088L0.892421 26.2015L0.984381 25.711L0.858634 25.2397L0.495874 24.9135L0.0411535 24.7563L0.0436938 24.2847L0.0340405 23.811L0.510608 23.6825L0.866256 23.3347L1.02096 22.8585L0.880735 22.3727L0.515435 22.0228L0.0266736 21.906L0 21.4322V20.9417L0.525088 20.849L0.858889 20.4727L1.01868 20.0012L0.861175 19.5273L0.500701 19.1963L0.0264195 19.051L0.00482664 18.575L0.0218469 18.0965L0.503241 17.9585L0.856348 17.6203L0.994289 17.1488L0.870828 16.6677L0.500701 16.3393L0.0508068 16.1893L0.0315002 15.7225L0.0508068 15.2557L0.525088 15.1438L0.873368 14.777L0.992002 14.296L0.883022 13.8103L0.498414 13.496L0.0436938 13.3387L0.00508068 12.8698L0.0317542 12.396L0.525342 12.2887L0.885816 11.9315L0.980063 11.4458L0.878449 10.9648L0.510608 10.629L0.0243873 10.498L0.00990732 10.0195L0.0221009 9.541L0.527628 9.4385L0.871082 9.07175L1.01131 8.59325L0.846695 8.129L0.517721 7.76225L0.0508068 7.63625L0.0121936 7.16725L0.00254034 6.68125L0.515435 6.567L0.875909 6.21925L0.974982 5.73825L0.878195 5.2575L0.515181 4.91225L0.0193066 4.79075L0.0119396 4.31225L0.0386131 3.8385L0.515181 3.71L0.858634 3.35525L1.00851 2.88625L0.849235 2.4215L0.517721 2.05725L0.0337865 1.9335L0.0604601 1.45725L0.0218469 0.97625L0.508068 0.83575L0.870828 0.50475L1.00877 0.0475H1.48534L1.96444 0.04025L2.10238 0.5045L2.44101 0.87125L2.9346 0.95925L3.41599 0.852L3.75233 0.49475L3.89739 0.021L4.38361 0.02575L4.87466 0.00675L4.97627 0.51625L5.35376 0.84475L5.83033 0.96375L6.31909 0.86375L6.64324 0.49225L6.80049 0.0445L7.27959 0.016L7.76582 0.0255L7.8941 0.5065L8.26194 0.83025L8.7314 0.997L9.21533 0.8565L9.55167 0.497L9.69673 0.028L10.1807 0.02075L10.6669 0.0255L10.7759 0.5185L11.1437 0.86375L11.6299 0.978L12.1042 0.84L12.4769 0.51375L12.5955 0.028L13.0794 0.0185L13.5634 0.028L13.711 0.497L14.0328 0.8685L14.5264 0.98525L15.0152 0.85675L15.3782 0.509L15.4831 0H15.9767L16.4558 0.03575L16.5645 0.51675L16.9298 0.86925L17.4234 0.95975L17.8929 0.82875L18.2727 0.512L18.3888 0.024L18.875 0.02875H19.3589L19.5065 0.4955L19.8451 0.85L20.3265 0.99775L20.7983 0.83575L21.1491 0.49775L21.299 0.05L21.7732 0.03575L22.2643 0.00725L22.3707 0.512L22.736 0.85475L23.2223 1L23.6917 0.82625L24.057 0.5025L24.1876 0.02625H24.6715L25.1577 0.0215L25.2931 0.49775L25.6488 0.831L26.1205 0.98575L26.6118 0.86675L26.9626 0.50725L27.0884 0.02875L27.5721 0.024L28.0585 0.01675L28.1721 0.50725L28.5471 0.83825L29.0213 0.98825L29.5002 0.8455L29.8558 0.5025L29.9915 0.03825L30.4703 0.031L30.9566 0.0215L31.109 0.48825L31.4331 0.85725L31.9196 0.98575L32.4129 0.86675L32.7323 0.48825L32.8847 0.02625L33.3686 0.0525L33.8597 0.00725L33.9806 0.5025L34.3459 0.8335L34.8202 0.95025L35.2896 0.8265L35.6549 0.5L35.7926 0.038L36.2717 0.0165L36.746 0.05225L36.8669 0.51175L37.2419 0.84025L37.7184 0.95225L38.1973 0.845L38.5626 0.507L38.6812 0.014L39.17 0.002L39.644 0.0495L39.7553 0.5185L40.1231 0.87325L40.6093 0.98275L40.6071 1.45425V1.92575L40.1279 2.04725L39.782 2.40675L39.6587 2.8805L39.8038 3.3425L40.1498 3.67825L40.6142 3.833L40.6335 4.30675L40.5974 4.77575L40.1353 4.9115L39.7964 5.26875L39.6417 5.7355L39.7797 6.21175L40.1183 6.5855L40.6022 6.69275L40.59 7.16425L40.5949 7.6285L40.1328 7.7595L39.7553 8.09775L39.6562 8.58825L39.7748 9.06675L40.1401 9.40475L40.6119 9.5405L40.6287 10.0142L40.6238 10.4905L40.1473 10.6383L39.7916 10.9715L39.6247 11.4405L39.7723 11.9215L40.1401 12.2572L40.6045 12.3953L40.6287 12.8643L40.6167 13.338L40.1498 13.488L39.799 13.8237L39.6417 14.2905L39.7893 14.762L40.1254 15.1335L40.6287 15.236L40.6142 16.1885L40.1401 16.3218L39.8038 16.679L39.6562 17.1432L39.8038 17.6075L40.1401 17.9622L40.6408 18.086L40.6093 18.5695L40.6022 19.0385L40.1206 19.1458L39.7964 19.5268L39.6369 19.9935L39.7578 20.484L40.1473 20.8008L40.6408 20.9387L40.5997 21.4223L40.636 21.9032L40.1376 22.027L39.7893 22.377L39.6369 22.8485L39.7601 23.3368L40.1473 23.6535L40.6022 23.806L40.5949 24.275L40.5997 24.744L40.1498 24.9013L39.7771 25.225L39.6732 25.7038L39.7964 26.1728L40.1305 26.5417L40.6457 26.649L40.6071 27.1322L40.6045 27.6015L40.1376 27.73L39.7868 28.0847L39.6587 28.561L39.8038 29.0278L40.1521 29.3635L40.6045 29.5182L40.6264 29.9872L40.6093 30.4587L40.1424 30.5993L39.7626 30.9277L39.6392 31.416L39.8013 31.8803L40.1353 32.2422L40.5974 32.373L40.636 32.8397L40.5997 33.3088L40.1424 33.454L39.7868 33.7945L39.6514 34.266L39.7601 34.7542L40.1279 35.1017L40.6431 35.209L40.636 35.6922L40.5949 36.159L40.1424 36.3068L39.7868 36.6473L39.6514 37.1185L39.8038 37.5805L40.1206 37.964L40.6287 38.064L40.6071 38.5448L40.6022 39.0163L40.1279 39.1403L39.7578 39.4855L39.6587 39.9972L39.1674 39.9782L38.6838 39.9735L38.57 39.4878L38.2095 39.133L37.7184 38.995L37.2297 39.1403L36.8717 39.4902L36.7409 39.945L36.2669 39.9615L35.7855 39.9663L35.6646 39.4902L35.2944 39.1615L34.8176 38.9972L34.3484 39.171L33.9831 39.4972L33.8404 39.945L33.3663 40L32.8872 39.9595L32.7422 39.5047L32.3985 39.1522L31.9171 38.9975L31.4187 39.126L31.0922 39.5047L30.9566 39.9905L30.4681 39.9785L29.9938 39.9475L29.8754 39.4857L29.4857 39.1738L29.0165 39.0405L28.5229 39.1307L28.1624 39.488L28.0486 39.969L27.5672 39.9548L27.0787 39.9905L26.9527 39.5L26.5996 39.1522L26.1182 39.0332L25.6391 39.157L25.2957 39.507L25.1458 39.957L24.6692 39.9953H24.1782L24.0621 39.4975L23.7138 39.1333L23.2179 39.0213L22.7269 39.138L22.3804 39.5L22.2424 39.9523L21.7682 39.95L21.2916 39.9595L21.1585 39.4975L20.7884 39.176L20.3189 39.0213L19.823 39.1285L19.4674 39.4905L19.3536 39.9785L18.8673 39.9453L18.3786 39.9857L18.2406 39.5047L17.914 39.126L17.4155 39.0095L16.9197 39.1285L16.5689 39.4927L16.4606 40L15.967 39.9712L15.4928 39.9523L15.3622 39.4953L15.0017 39.15L14.5178 39.026L14.0316 39.1475L13.7049 39.5143L13.5525 39.981L13.0662 39.9762L12.5775 39.9857L12.4395 39.5047L12.0961 39.1522L11.6147 39.0095L11.1452 39.176L10.7776 39.5L10.6397 39.957L10.1631 39.988L9.6792 39.9762L9.5438 39.5023L9.20034 39.1427L8.71412 39.0402L8.23273 39.1522L7.88191 39.5L7.75362 39.988L7.26486 39.9642L6.77864 39.9785L6.62876 39.5095L6.30944 39.1285L5.81357 39.019L5.337 39.1618L4.95722 39.488L4.84824 39.9832L4.36202 39.95L3.87325 39.9905L3.75233 39.4975L3.39186 39.157L2.91275 39.0165L2.41916 39.1333L2.07571 39.4975L1.94514 39.9665L1.46374 39.9712L0.970155 40L0.851521 39.4975L0.493588 39.1548L0.0459801 39.0165ZM3.87529 9.051L3.9139 9.52475L3.91644 9.9985V10.4722L3.89713 10.946L3.92609 11.4198L3.90196 11.8935L3.91161 12.3673L3.89459 12.841L3.8824 13.3265L4.38081 13.3145L4.86475 13.293L5.34868 13.3L5.83262 13.3333L6.31655 13.3118L6.80049 13.3308L7.28188 13.3045L7.76582 13.326L8.24975 13.3118L8.73368 13.326L9.21762 13.295L10.1852 13.3188L10.6666 13.3115L11.1506 13.3235L11.632 13.3212L12.1133 13.3118L12.5947 13.3237H13.0761L13.5479 13.3048L13.5527 12.8405V12.3645L13.5672 11.8907L13.5357 11.417L13.5865 10.9432L13.5672 10.4695L13.5502 9.99575L13.555 9.522L13.5791 9.04825L13.5474 8.575L13.5837 8.10125L13.5667 7.6275L13.5425 7.15375L13.5667 6.68L13.5448 6.20625L13.5593 5.7325L13.5763 5.25875L13.5641 4.785L13.54 4.31125L13.5641 3.83275L13.0731 3.86375L12.5892 3.828L12.1057 3.85H11.6218L11.1379 3.812L10.6539 3.83825L10.1725 3.84075L9.6886 3.82175L9.20466 3.83375L8.72073 3.841L8.23679 3.822L7.75286 3.85525L7.26893 3.853L6.78753 3.83875L6.3036 3.81025L5.8222 3.846L5.34081 3.8675L4.85941 3.83425L4.37802 3.86525L3.8918 3.83425L3.88215 4.31275L3.92076 4.78875L3.87224 5.2625L3.90602 5.73625L3.8697 6.21L3.88418 6.68375L3.91568 7.1575L3.8697 7.63125L3.91568 8.105L3.90348 8.57875L3.87529 9.051ZM15.9198 18.6635L15.7189 19.0947L15.5738 19.533L15.4892 20L15.5497 20.474L15.7166 20.9195L15.932 21.3435L16.2394 21.7103L16.5564 22.0675L16.9291 22.3725L17.321 22.6488L17.73 22.9013L18.1632 23.1133L18.5866 23.342L19.0317 23.5278L19.472 23.7278L19.9292 23.885L20.3938 24.0233L20.8633 24.1448L21.335 24.252L21.8116 24.3425L22.293 24.4067L22.7696 24.4902L23.2487 24.5522L23.7301 24.6047L24.2066 24.6978L24.6929 24.7025L25.1742 24.762L25.6605 24.7383L26.1444 24.7262L26.6281 24.75L27.1118 24.707L27.5957 24.6903L28.0819 24.7022L28.561 24.614L29.0472 24.6045L29.519 24.4855L30.0006 24.4282L30.4747 24.333L30.9464 24.2257L31.4159 24.1065L31.8828 23.978L32.3449 23.8375L32.8166 23.7255L33.2546 23.523L34.5755 22.9298L34.9627 22.6415L35.3498 22.3605L35.7344 22.0748L36.0875 21.7485L36.3586 21.3507L36.5885 20.9315L36.7506 20.4837L36.7747 20.0098L36.7336 19.5357L36.5885 19.0833L36.3563 18.6663L36.0756 18.278L35.7103 17.9635L35.3569 17.642L34.9845 17.3347L34.5732 17.0823L34.1328 16.8797L33.7095 16.6488L33.2619 16.4678L32.8095 16.2985L32.3545 16.139L31.895 15.989L31.4184 15.9008L30.9586 15.746L30.4772 15.6792L30.0006 15.5957L29.519 15.5L28.5562 15.3953L28.0748 15.338L27.5934 15.2855L27.1069 15.3045L26.6233 15.2378L26.1368 15.2808L25.6531 15.245L25.1692 15.2522L24.6852 15.2975L24.2038 15.35L23.7199 15.3715L23.236 15.4145L22.7617 15.5122L22.2851 15.5955L21.8037 15.6503L21.3343 15.7695L20.8577 15.8577L20.3979 16.0077L19.9358 16.153L19.4786 16.3055L19.0309 16.489L18.5762 16.651L18.1408 16.863L17.7125 17.0845L17.3254 17.38L16.9311 17.6515L16.5633 17.9565L16.2002 18.2733L15.9198 18.6635ZM5.84075 21.427L5.80696 20.96L5.85523 20.4788L5.80696 20.0047L5.81433 19.5308L5.80696 19.0567L5.82881 18.5828L6.31274 18.5995L6.79896 18.559L7.2829 18.5543L7.76683 18.5662L8.25077 18.6092H8.7347L9.21864 18.5877L9.70257 18.5735L10.1865 18.5998L10.6704 18.6117L11.1544 18.5737L11.6383 18.5975L12.1222 18.569L12.6062 18.6047L13.0901 18.5952L13.574 18.557L14.0483 18.6047L13.7895 19.0193L13.6444 19.5075L13.5669 20.0103L13.6515 20.5105L13.7798 21.0035L14.0653 21.4513L13.5743 21.4083L13.0881 21.4513L12.6041 21.4132L12.1202 21.4395L11.6363 21.418L11.1523 21.4443L10.6684 21.4252L10.1845 21.461L9.70054 21.4325L9.2166 21.4468L8.73267 21.442L8.24873 21.4635H7.7648L7.28086 21.4492L6.79693 21.454L6.313 21.466L5.84075 21.427ZM20.3547 29.9713L20.3184 29.498L20.3692 29.0245L20.3644 28.551L20.3136 28.08L20.3377 27.6065L20.3184 27.133L20.357 26.6667L20.8069 26.712L21.2835 26.7237L21.7334 26.8785L22.1954 26.9928L22.6019 27.2377L23.0106 27.4708L23.4001 27.735L23.7631 28.0347L24.0486 28.4058L24.3413 28.77L24.622 29.1483L24.7914 29.5835L24.956 30.019L25.0843 30.4662L25.1593 30.9255L25.1618 31.3892L25.1473 31.8533L25.1013 32.3172L24.9344 32.755L24.8232 33.2093L24.5788 33.609L24.3441 34.0112L24.0877 34.4038L23.7659 34.7463L23.4029 35.046L23.0302 35.334L22.6093 35.548L22.1835 35.748L21.7359 35.8955L21.286 36.043L20.8166 36.1237L20.357 36.112V35.6432L20.3255 35.1698L20.3618 34.6963L20.357 34.223L20.3448 33.7495L20.3278 33.276L20.3374 32.8025L20.3181 31.8557L20.3156 31.3822L20.3349 30.9088L20.3131 30.4352L20.3547 29.9713ZM3.88494 35.215L3.93092 34.7415L3.90679 34.2632L3.91644 33.79L3.89459 33.3165L3.87046 32.843L3.89713 32.3695L3.91161 31.896L3.89459 31.4228L3.89231 30.9492L3.87529 30.4757L3.90679 30.0023L3.92127 29.5287L3.87529 29.0555L3.92863 28.582L3.9045 28.1108L3.90196 27.6375L3.90679 27.164L3.92127 26.7095L4.38818 26.7143L4.87212 26.7048L5.35605 26.7073L5.83998 26.7143L6.32392 26.6833L6.80785 26.719L7.28925 26.7L7.77318 26.7143H8.25712L8.74105 26.6785L9.22499 26.7073L9.70892 26.6715L10.1929 26.6667L10.6768 26.6737L11.1607 26.7073L11.6447 26.6667L12.1261 26.7L12.61 26.7167L13.0939 26.7073L13.5753 26.712L14.0567 26.6785L14.5381 26.681L15.022 26.6737L15.5034 26.7025L15.9848 26.681L16.4662 26.7025L16.9502 26.6667L17.4316 26.669L17.9129 26.6978L18.4136 26.6763L18.4088 27.1688L18.3918 27.6423L18.4159 28.1155L18.3844 28.589L18.37 29.0625L18.3966 29.536L18.4185 30.0095L18.375 30.4827L18.3969 30.9562L18.3824 31.4298L18.3727 31.9032L18.4017 32.3768L18.3994 32.85V33.3235L18.4139 33.797L18.3753 34.2705L18.3679 34.7415L18.4139 35.215L18.3801 35.6885L18.3971 36.1668L17.9061 36.1595L17.4222 36.1763L16.9382 36.1475L16.4543 36.1595L15.9703 36.1357L15.4864 36.1333L15.0098 36.1357L14.5259 36.1833L14.042 36.181H13.0744L12.5904 36.1668L12.1065 36.1405L11.6226 36.1475L11.1386 36.1668H10.1733L9.68936 36.1595L9.20543 36.1452L8.24264 36.1738L7.76073 36.15L7.2768 36.1785L6.79541 36.1905L6.31401 36.181L5.83262 36.1333L5.34868 36.169L4.86729 36.1763L4.38589 36.1715H3.89231L3.88748 35.6885L3.88494 35.215ZM27.0833 31.4465L27.0541 31.9247L26.9817 32.4005L26.8509 32.8908L27.3567 32.8765L27.8525 32.886L28.3484 32.8525L28.8445 32.843L29.3404 32.8812L29.8363 32.8882L30.3322 32.8693L30.8283 32.8623L31.3242 32.8478L31.82 32.8765L32.3159 32.8597L32.8143 32.8525L33.3127 32.867L33.8111 32.893L34.3096 32.874L34.8077 32.8645L34.8103 32.3935L34.791 31.92L34.8125 31.4465L34.7836 30.973L34.8392 30.4998L34.7981 30.031L34.3096 30.0142L33.8134 30.0095L33.3176 30.0548L32.8217 30.0142L32.3256 30.0475L31.8297 30.0072L31.3338 30.0333L30.8379 30.0427L30.3418 30.0405L29.8459 30.0047L29.3501 30.0285L28.8516 30.057L28.3532 30.019L27.8551 30L27.3567 30.0333L26.8679 30.0522L27.001 30.4877L27.0325 30.9683L27.0833 31.4465ZM15.5017 6.1685L15.4994 5.69475L15.4486 5.221L15.4752 4.74725L15.4582 4.27125L15.4897 3.8095L15.9373 3.93325L16.392 4.08075L16.859 4.19275L17.321 4.32125L17.7783 4.464L18.2427 4.57825L18.6926 4.74725L19.1524 4.8805L19.6071 5.03525L20.0788 5.1305L20.5264 5.30675L20.9982 5.40425L21.4554 5.5495L21.915 5.68525L22.3819 5.7995L22.8392 5.94225L23.2964 6.09225L23.7633 6.20175L24.2084 6.38975L24.6753 6.51125L25.14 6.6375L25.1521 7.11125L25.1448 7.5825V8.05625L25.111 8.53L25.1496 9.00375L25.1519 9.4775L25.1615 9.96075L25.1494 10.4415L24.6873 10.5843L24.2277 10.72L23.7705 10.8605L23.3061 10.9773L22.8465 11.1105L22.3819 11.2295L21.9224 11.3652L21.4748 11.5415L21.003 11.6368L20.5386 11.76L20.091 11.9385L19.6289 12.067L19.1595 12.174L18.6974 12.3003L18.2379 12.436L17.788 12.6027L17.3307 12.7502L16.8661 12.8717L16.3966 12.9765L15.9394 13.1287L15.4676 13.2905L15.4724 12.8003L15.4798 12.3265L15.4991 11.8527L15.475 11.379L15.4991 10.9052L15.4869 10.4315L15.4676 9.95775V9.484L15.4895 9.01025L15.4605 8.5365L15.5065 8.06275L15.463 7.589L15.4679 7.11525L15.4653 6.6415L15.5017 6.1685ZM27.0589 8.114L27.0953 8.58775L27.0638 9.0615L27.0978 9.5375L27.0759 10.0183L27.5647 10.011L28.0484 10.0135L28.53 10.0372L29.4951 9.98975L29.979 10.0302L30.463 9.997L30.9467 10.0255L31.4306 9.98025L31.912 10.0325L32.3959 10.0205L32.8796 10.03L33.3635 9.98725L33.8475 10.035L34.3312 10.0325L34.8125 10.004L34.8369 9.535L34.8006 9.06125L34.8344 8.5875L34.8392 8.11625L34.8222 7.6425V7.1545L34.3263 7.164L33.8426 7.176L33.361 7.19275L32.8773 7.1855L32.3959 7.15225L31.912 7.18075L31.4281 7.1735L30.9444 7.1425L30.4604 7.1925L29.979 7.17575L29.4951 7.1425L29.0114 7.152L28.5275 7.15425L28.0436 7.18525L27.5599 7.17325L27.0833 7.17075L27.0589 7.63725V8.114ZM9.23743 5.77875L8.81421 5.91675L8.47558 6.2025L8.11283 6.5215L7.78639 6.87625L7.45259 7.22375L7.09694 7.55L6.74384 7.881L6.41486 8.23825L6.04956 8.5715L6.41232 8.90475L6.76797 9.23325L7.08729 9.5975L7.45259 9.91425L7.77903 10.2715L8.12019 10.6167L8.47813 10.9452L8.8386 11.1952L9.22803 11.4095L9.67539 11.4358L10.1182 11.393L10.5295 11.224L10.8899 10.962L11.144 10.6L11.3134 10.1952L11.3835 9.762L11.3157 9.32875L11.144 8.9265L10.8851 8.574L11.1488 8.224L11.3302 7.82175L11.4003 7.38375L11.3103 6.95L11.1556 6.5405L10.8726 6.2025L10.534 5.91925L10.1131 5.7765L9.67767 5.70025L9.23743 5.77875Z" fill="#FC6E83"/>
</g>
<path d="M59.9351 26.0427H54.9954L54.0346 29.6553H50.2035L55.8084 12.0044H59.1221L64.764 29.6553H60.896L59.9351 26.0427ZM55.7838 23.0726H59.1344L57.4591 16.7808L55.7838 23.0726Z" fill="#FC6E83"/>
<path d="M71.1819 12.0044L74.5695 24.7698L77.9448 12.0044H82.6751V29.6553H79.0412V24.8789L79.3738 17.5203L75.7891 29.6553H73.3254L69.7407 17.5203L70.0733 24.8789V29.6553H66.4516V12.0044H71.1819Z" fill="#FC6E83"/>
<path d="M98.2211 22.4179C98.2211 24.786 97.6504 26.6246 96.5088 27.9339C95.3755 29.2432 93.7988 29.8978 91.7785 29.8978C89.7665 29.8978 88.1856 29.2512 87.0359 27.9581C85.8862 26.6569 85.3031 24.8385 85.2867 22.5028V19.4842C85.2867 17.0596 85.8574 15.1684 86.9989 13.8107C88.1404 12.4448 89.7254 11.7619 91.7539 11.7619C93.7495 11.7619 95.3222 12.4327 96.4719 13.7743C97.6216 15.1078 98.2047 16.9828 98.2211 19.3993V22.4179ZM94.5871 19.46C94.5871 17.8678 94.3572 16.6838 93.8973 15.9079C93.4374 15.1321 92.7229 14.7441 91.7539 14.7441C90.793 14.7441 90.0827 15.12 89.6228 15.8716C89.1629 16.6151 88.9247 17.7506 88.9083 19.2781V22.4179C88.9083 23.9616 89.1424 25.1012 89.6105 25.8366C90.0786 26.564 90.8013 26.9277 91.7785 26.9277C92.7229 26.9277 93.4251 26.5721 93.885 25.8609C94.3449 25.1416 94.5789 24.0303 94.5871 22.5271V19.46Z" fill="#FC6E83"/>
<path d="M106.253 23.2059H104.454V29.6553H100.833V12.0044H106.61C108.425 12.0044 109.825 12.4691 110.811 13.3985C111.804 14.3198 112.301 15.6332 112.301 17.3384C112.301 19.6822 111.435 21.3228 109.702 22.2604L112.843 29.4856V29.6553H108.951L106.253 23.2059ZM104.454 20.2358H106.511C107.234 20.2358 107.776 20.0014 108.138 19.5327C108.499 19.0559 108.68 18.4214 108.68 17.6294C108.68 15.8594 107.977 14.9745 106.573 14.9745H104.454V20.2358Z" fill="#FC6E83"/>
<path d="M124.053 22.0179H118.411V26.6973H125.088V29.6553H114.79V12.0044H125.063V14.9745H118.411V19.1448H124.053V22.0179Z" fill="#FC6E83"/>
<path d="M133.021 24.8062L136.039 12.0044H140.079L134.906 29.6553H131.136L125.999 12.0044H130.015L133.021 24.8062Z" fill="#FC6E83"/>
<path d="M145.549 29.6553H141.927V12.0044H145.549V29.6553Z" fill="#FC6E83"/>
<path d="M161.132 29.6553H157.51L152.213 18.0779V29.6553H148.592V12.0044H152.213L157.523 23.5939V12.0044H161.132V29.6553Z" fill="#FC6E83"/>
<path d="M176.665 22.4179C176.665 24.786 176.095 26.6246 174.953 27.9339C173.82 29.2432 172.243 29.8978 170.223 29.8978C168.211 29.8978 166.63 29.2512 165.48 27.9581C164.331 26.6569 163.747 24.8385 163.731 22.5028V19.4842C163.731 17.0596 164.302 15.1684 165.443 13.8107C166.585 12.4448 168.17 11.7619 170.198 11.7619C172.194 11.7619 173.767 12.4327 174.916 13.7743C176.066 15.1078 176.649 16.9828 176.665 19.3993V22.4179ZM173.032 19.46C173.032 17.8678 172.802 16.6838 172.342 15.9079C171.882 15.1321 171.167 14.7441 170.198 14.7441C169.237 14.7441 168.527 15.12 168.067 15.8716C167.607 16.6151 167.369 17.7506 167.353 19.2781V22.4179C167.353 23.9616 167.587 25.1012 168.055 25.8366C168.523 26.564 169.246 26.9277 170.223 26.9277C171.167 26.9277 171.869 26.5721 172.329 25.8609C172.789 25.1416 173.023 24.0303 173.032 22.5271V19.46Z" fill="#FC6E83"/>
<defs>
<clipPath id="clip0">
<rect width="40.6457" height="40" fill="white"/>
</clipPath>
</defs>
</svg>
